HIERARCHY
ROOT Hips
{
	OFFSET 1.324476 86.935013 4.250773
	CHANNELS 6 Xposition Yposition Zposition Zrotation Yrotation Xrotation 
	JOINT Spine
	{
		OFFSET 0.000000 8.814246 -2.080107
		CHANNELS 3 Zrotation Yrotation Xrotation
		JOINT Spine1
		{
			OFFSET 0.000000 8.844141 -0.000000
			CHANNELS 3 Zrotation Yrotation Xrotation
			JOINT Spine2
			{
				OFFSET 0.000000 11.682268 0.000000
				CHANNELS 3 Zrotation Yrotation Xrotation
				JOINT Spine3
				{
					OFFSET 0.000000 11.746700 0.000000
					CHANNELS 3 Zrotation Yrotation Xrotation
					JOINT Neck
					{
						OFFSET -0.000000 17.658264 -0.000000
						CHANNELS 3 Zrotation Yrotation Xrotation
						JOINT Neck1
						{
							OFFSET 0.000000 5.101515 -0.000000
							CHANNELS 3 Zrotation Yrotation Xrotation
							JOINT Head
							{
								OFFSET 0.000000 5.101515 0.000000
								CHANNELS 3 Zrotation Yrotation Xrotation
								JOINT HeadEnd
								{
									OFFSET -0.000000 11.655085 0.000000
									CHANNELS 3 Zrotation Yrotation Xrotation
									End Site
									{
										OFFSET 0.000000 0.000000 0.000000
									}
								}
							}
						}
					}
					JOINT RightShoulder
					{
						OFFSET -2.625389 11.175210 -0.000000
						CHANNELS 3 Zrotation Yrotation Xrotation
						JOINT RightArm
						{
							OFFSET -0.000000 10.434715 -0.000000
							CHANNELS 3 Zrotation Yrotation Xrotation
							JOINT RightForeArm
							{
								OFFSET -0.000000 29.628420 -0.000000
								CHANNELS 3 Zrotation Yrotation Xrotation
								JOINT RightHand
								{
									OFFSET -0.000000 22.857611 -0.000000
									CHANNELS 3 Zrotation Yrotation Xrotation
									JOINT RightHandThumb1
									{
										OFFSET -2.867323 3.959563 2.944291
										CHANNELS 3 Zrotation Yrotation Xrotation
										JOINT RightHandThumb2
										{
											OFFSET -0.000000 3.350399 0.000000
											CHANNELS 3 Zrotation Yrotation Xrotation
											JOINT RightHandThumb3
											{
												OFFSET 0.000000 3.756509 -0.000000
												CHANNELS 3 Zrotation Yrotation Xrotation
												JOINT RightHandThumb4
												{
													OFFSET 0.000000 3.147345 -0.000000
													CHANNELS 3 Zrotation Yrotation Xrotation
													End Site
													{
														OFFSET 0.000000 0.000000 0.000000
													}
												}
											}
										}
									}
									JOINT RightHandIndex1
									{
										OFFSET -0.086752 10.030893 2.345280
										CHANNELS 3 Zrotation Yrotation Xrotation
										JOINT RightHandIndex2
										{
											OFFSET -0.000000 4.061090 -0.000000
											CHANNELS 3 Zrotation Yrotation Xrotation
											JOINT RightHandIndex3
											{
												OFFSET 0.000000 3.248873 0.000000
												CHANNELS 3 Zrotation Yrotation Xrotation
												JOINT RightHandIndex4
												{
													OFFSET 0.000000 2.639709 -0.000000
													CHANNELS 3 Zrotation Yrotation Xrotation
													End Site
													{
														OFFSET 0.000000 0.000000 0.000000
													}
												}
											}
										}
									}
									JOINT RightHandMiddle1
									{
										OFFSET 0.104102 9.502952 0.006768
										CHANNELS 3 Zrotation Yrotation Xrotation
										JOINT RightHandMiddle2
										{
											OFFSET 0.000000 4.568727 0.000000
											CHANNELS 3 Zrotation Yrotation Xrotation
											JOINT RightHandMiddle3
											{
												OFFSET 0.000000 3.654981 -0.000000
												CHANNELS 3 Zrotation Yrotation Xrotation
												JOINT RightHandMiddle4
												{
													OFFSET -0.000000 2.741236 -0.000000
													CHANNELS 3 Zrotation Yrotation Xrotation
													End Site
													{
														OFFSET 0.000000 0.000000 0.000000
													}
												}
											}
										}
									}
									JOINT RightHandRing1
									{
										OFFSET 0.086752 8.921708 -2.267442
										CHANNELS 3 Zrotation Yrotation Xrotation
										JOINT RightHandRing2
										{
											OFFSET -0.000000 4.061090 0.000000
											CHANNELS 3 Zrotation Yrotation Xrotation
											JOINT RightHandRing3
											{
												OFFSET -0.000000 3.654981 -0.000000
												CHANNELS 3 Zrotation Yrotation Xrotation
												JOINT RightHandRing4
												{
													OFFSET -0.000000 2.741236 -0.000000
													CHANNELS 3 Zrotation Yrotation Xrotation
													End Site
													{
														OFFSET 0.000000 0.000000 0.000000
													}
												}
											}
										}
									}
									JOINT RightHandPinky1
									{
										OFFSET -0.173504 7.976997 -4.467199
										CHANNELS 3 Zrotation Yrotation Xrotation
										JOINT RightHandPinky2
										{
											OFFSET -0.000000 3.350399 -0.000000
											CHANNELS 3 Zrotation Yrotation Xrotation
											JOINT RightHandPinky3
											{
												OFFSET -0.000000 2.842763 -0.000000
												CHANNELS 3 Zrotation Yrotation Xrotation
												JOINT RightHandPinky4
												{
													OFFSET 0.000000 2.639709 0.000000
													CHANNELS 3 Zrotation Yrotation Xrotation
													End Site
													{
														OFFSET 0.000000 0.000000 0.000000
													}
												}
											}
										}
									}
									JOINT RightForeArmEnd
									{
										OFFSET 0.000000 0.000000 0.000000
										CHANNELS 3 Zrotation Yrotation Xrotation
										End Site
										{
											OFFSET 0.000000 0.000000 0.000000
										}
									}
								}
								JOINT RightArmEnd
								{
									OFFSET 0.000000 0.000000 0.000000
									CHANNELS 3 Zrotation Yrotation Xrotation
									End Site
									{
										OFFSET 0.000000 0.000000 0.000000
									}
								}
							}
						}
					}
					JOINT LeftShoulder
					{
						OFFSET 2.625389 11.175210 -0.000000
						CHANNELS 3 Zrotation Yrotation Xrotation
						JOINT LeftArm
						{
							OFFSET 0.000000 10.813635 0.000000
							CHANNELS 3 Zrotation Yrotation Xrotation
							JOINT LeftForeArm
							{
								OFFSET 0.000000 28.724781 -0.000000
								CHANNELS 3 Zrotation Yrotation Xrotation
								JOINT LeftHand
								{
									OFFSET 0.644384 25.716167 -0.328871
									CHANNELS 3 Zrotation Yrotation Xrotation
									JOINT LeftHandThumb1
									{
										OFFSET 2.867323 3.959563 2.944291
										CHANNELS 3 Zrotation Yrotation Xrotation
										JOINT LeftHandThumb2
										{
											OFFSET -0.000000 3.350399 -0.000000
											CHANNELS 3 Zrotation Yrotation Xrotation
											JOINT LeftHandThumb3
											{
												OFFSET -0.000000 3.756509 0.000000
												CHANNELS 3 Zrotation Yrotation Xrotation
												JOINT LeftHandThumb4
												{
													OFFSET 0.000000 3.100000 -0.000000
													CHANNELS 3 Zrotation Yrotation Xrotation
													End Site
													{
														OFFSET 0.000000 0.000000 0.000000
													}
												}
											}
										}
									}
									JOINT LeftHandIndex1
									{
										OFFSET 0.086752 10.030893 2.345280
										CHANNELS 3 Zrotation Yrotation Xrotation
										JOINT LeftHandIndex2
										{
											OFFSET 0.000000 4.061090 -0.000000
											CHANNELS 3 Zrotation Yrotation Xrotation
											JOINT LeftHandIndex3
											{
												OFFSET 0.000000 3.248873 -0.000000
												CHANNELS 3 Zrotation Yrotation Xrotation
												JOINT LeftHandIndex4
												{
													OFFSET -0.000000 2.639709 0.000000
													CHANNELS 3 Zrotation Yrotation Xrotation
													End Site
													{
														OFFSET 0.000000 0.000000 0.000000
													}
												}
											}
										}
									}
									JOINT LeftHandMiddle1
									{
										OFFSET -0.104102 9.502952 0.006768
										CHANNELS 3 Zrotation Yrotation Xrotation
										JOINT LeftHandMiddle2
										{
											OFFSET 0.000000 4.568727 -0.000000
											CHANNELS 3 Zrotation Yrotation Xrotation
											JOINT LeftHandMiddle3
											{
												OFFSET 0.000000 3.654981 -0.000000
												CHANNELS 3 Zrotation Yrotation Xrotation
												JOINT LeftHandMiddle4
												{
													OFFSET -0.000000 2.741236 0.000000
													CHANNELS 3 Zrotation Yrotation Xrotation
													End Site
													{
														OFFSET 0.000000 0.000000 0.000000
													}
												}
											}
										}
									}
									JOINT LeftHandRing1
									{
										OFFSET -0.086752 8.921708 -2.267442
										CHANNELS 3 Zrotation Yrotation Xrotation
										JOINT LeftHandRing2
										{
											OFFSET 0.000000 4.061090 -0.000000
											CHANNELS 3 Zrotation Yrotation Xrotation
											JOINT LeftHandRing3
											{
												OFFSET 0.000000 3.654981 -0.000000
												CHANNELS 3 Zrotation Yrotation Xrotation
												JOINT LeftHandRing4
												{
													OFFSET 0.000000 2.741236 0.000000
													CHANNELS 3 Zrotation Yrotation Xrotation
													End Site
													{
														OFFSET 0.000000 0.000000 0.000000
													}
												}
											}
										}
									}
									JOINT LeftHandPinky1
									{
										OFFSET 0.173504 7.976997 -4.467199
										CHANNELS 3 Zrotation Yrotation Xrotation
										JOINT LeftHandPinky2
										{
											OFFSET 0.000000 3.350399 -0.000000
											CHANNELS 3 Zrotation Yrotation Xrotation
											JOINT LeftHandPinky3
											{
												OFFSET -0.000000 2.842763 0.000000
												CHANNELS 3 Zrotation Yrotation Xrotation
												JOINT LeftHandPinky4
												{
													OFFSET 0.000000 2.639709 -0.000000
													CHANNELS 3 Zrotation Yrotation Xrotation
													End Site
													{
														OFFSET 0.000000 0.000000 0.000000
													}
												}
											}
										}
									}
									JOINT LeftForeArmEnd
									{
										OFFSET 0.000000 0.000000 0.000000
										CHANNELS 3 Zrotation Yrotation Xrotation
										End Site
										{
											OFFSET 0.000000 0.000000 0.000000
										}
									}
								}
								JOINT LeftArmEnd
								{
									OFFSET 0.000000 0.000000 0.000000
									CHANNELS 3 Zrotation Yrotation Xrotation
									End Site
									{
										OFFSET 0.000000 0.000000 0.000000
									}
								}
							}
						}
					}
				}
			}
		}
	}
	JOINT RightUpLeg
	{
		OFFSET -11.289943 -0.000000 0.000000
		CHANNELS 3 Zrotation Yrotation Xrotation
		JOINT RightLeg
		{
			OFFSET -0.000000 -38.200325 -0.000000
			CHANNELS 3 Zrotation Yrotation Xrotation
			JOINT RightFoot
			{
				OFFSET -0.000000 -39.900856 0.000000
				CHANNELS 3 Zrotation Yrotation Xrotation
				JOINT RightToeBase
				{
					OFFSET 0.000000 0.000000 15.261641
					CHANNELS 3 Zrotation Yrotation Xrotation
					JOINT RightToeBaseEnd
					{
						OFFSET 0.000000 -0.000000 7.370709
						CHANNELS 3 Zrotation Yrotation Xrotation
						End Site
						{
							OFFSET 0.000000 0.000000 0.000000
						}
					}
				}
				JOINT RightLegEnd
				{
					OFFSET 0.000000 0.000000 0.000000
					CHANNELS 3 Zrotation Yrotation Xrotation
					End Site
					{
						OFFSET 0.000000 0.000000 0.000000
					}
				}
			}
			JOINT RightUpLegEnd
			{
				OFFSET 0.000000 0.000000 0.000000
				CHANNELS 3 Zrotation Yrotation Xrotation
				End Site
				{
					OFFSET 0.000000 0.000000 0.000000
				}
			}
		}
	}
	JOINT LeftUpLeg
	{
		OFFSET 11.315661 0.000000 -0.000000
		CHANNELS 3 Zrotation Yrotation Xrotation
		JOINT LeftLeg
		{
			OFFSET -0.000000 -38.200325 0.000000
			CHANNELS 3 Zrotation Yrotation Xrotation
			JOINT LeftFoot
			{
				OFFSET -0.000000 -39.900856 0.000000
				CHANNELS 3 Zrotation Yrotation Xrotation
				JOINT LeftToeBase
				{
					OFFSET -0.000000 0.000000 15.261641
					CHANNELS 3 Zrotation Yrotation Xrotation
					JOINT LeftToeBaseEnd
					{
						OFFSET -0.000000 0.000000 7.539996
						CHANNELS 3 Zrotation Yrotation Xrotation
						End Site
						{
							OFFSET 0.000000 0.000000 0.000000
						}
					}
				}
				JOINT LeftLegEnd
				{
					OFFSET 0.000000 0.000000 0.000000
					CHANNELS 3 Zrotation Yrotation Xrotation
					End Site
					{
						OFFSET 0.000000 0.000000 0.000000
					}
				}
			}
			JOINT LeftUpLegEnd
			{
				OFFSET 0.000000 0.000000 0.000000
				CHANNELS 3 Zrotation Yrotation Xrotation
				End Site
				{
					OFFSET 0.000000 0.000000 0.000000
				}
			}
		}
	}
}
MOTION
Frames: 4
Frame Time: 0.016667
-0.371398 85.522415 5.803281 -1.244378 -4.697735 -15.268337 -0.130826 0.189709 9.385907 5.322847 -1.363878 -4.080070 -3.250391 0.671264 20.097971 0.366318 -0.565339 -1.575287 7.308743 1.036646 11.489731 -3.171052 0.491524 -7.046790 -0.144032 3.397239 -25.781610 0.000000 0.000000 0.000000 98.122101 -1.028278 4.896444 56.609959 -44.476620 8.369714 1.390492 16.238157 32.740612 5.210313 16.536251 -12.027446 9.564827 -1.757723 40.225250 -0.000003 0.000049 -23.446943 0.000004 0.000070 -16.242081 0.000014 0.000001 -0.000051 11.147879 0.206278 -8.908601 7.726737 -0.073747 0.123686 7.706977 -0.043108 0.053763 -0.000005 0.000027 -0.000037 11.868187 0.071173 -11.024269 8.217040 -0.040643 0.038251 8.125487 -0.010507 0.036206 -0.000004 -0.000026 -0.000008 13.926871 -0.127783 -12.239556 9.821431 0.072640 -0.018887 9.675434 0.012537 -0.020243 -0.000016 -0.000381 0.000014 15.228771 -0.412462 -14.894343 10.667912 0.150700 0.031543 10.662907 0.013686 -0.000431 -0.000092 -0.000011 -0.000008 0.000000 0.000000 0.000000 0.000000 0.000000 0.000000 -94.960098 0.762157 4.383525 -56.869099 44.721119 1.322321 -1.462005 -7.707551 50.173302 -1.962456 -19.925905 -17.359825 -8.773886 1.665686 40.558674 0.000008 0.000056 -21.688414 -0.000047 -0.000031 -14.849409 -0.000124 -0.000001 0.000129 -13.404135 0.235161 -13.683343 -8.587394 -0.032615 0.107017 -8.637531 0.004459 0.087545 -0.000001 0.001827 -0.000016 -14.136758 0.109537 -14.920448 -9.265655 -0.025508 0.036746 -9.159824 0.003021 0.030525 -0.001689 -0.000070 -0.000199 -16.002991 -0.064502 -13.980094 -10.732692 0.062189 -0.071759 -10.745516 -0.000935 -0.065903 0.000573 0.000010 0.000007 -16.886246 -0.331398 -13.620853 -11.552054 0.095084 -0.221483 -11.410169 -0.016641 -0.183551 -0.000950 0.000007 -0.000058 0.000000 0.000000 0.000000 0.000000 0.000000 0.000000 -2.777411 -3.563114 19.486101 -0.199145 -0.977361 9.546348 -1.019339 -10.785098 15.006243 -0.604361 -0.721180 -27.832592 0.000000 0.000000 0.000000 0.000000 0.000000 0.000000 0.000000 0.000000 0.000000 9.427460 6.636380 18.102619 0.226192 1.066086 13.762808 -1.459657 5.763796 11.806188 0.422283 0.408116 -27.325447 0.000000 0.000000 0.000000 0.000000 0.000000 0.000000 0.000000 0.000000 0.000000 
-0.378393 85.519257 5.801819 -1.238540 -4.707889 -15.289002 -0.131323 0.190702 9.392663 5.318952 -1.360592 -4.095201 -3.250649 0.665487 20.116449 0.348908 -0.565866 -1.585087 7.249135 1.055110 11.508652 -3.179435 0.491412 -7.033824 -0.148882 3.395566 -25.794495 0.000000 0.000000 0.000000 98.126953 -1.024525 4.876801 56.609547 -44.484619 8.389813 1.397229 16.270992 32.788261 5.225257 16.410133 -12.016745 9.567420 -1.758333 40.223843 -0.000002 0.000049 -23.454809 0.000003 0.000070 -16.243576 0.000014 0.000001 -0.000051 11.156218 0.205970 -8.922454 7.724814 -0.073771 0.121509 7.707038 -0.043220 0.051646 -0.000005 0.000027 -0.000037 11.881351 0.070991 -11.038580 8.216455 -0.040667 0.037292 8.124716 -0.010497 0.035466 -0.000004 -0.000029 -0.000009 13.939789 -0.127566 -12.256585 9.831472 0.072490 -0.017739 9.684930 0.012509 -0.019218 -0.000016 -0.000416 0.000014 15.223535 -0.412829 -14.903327 10.677862 0.150750 0.033306 10.673228 0.013810 0.001266 -0.000090 -0.000011 -0.000008 0.000000 0.000000 0.000000 0.000000 0.000000 0.000000 -94.981766 0.766151 4.360762 -56.873173 44.718792 1.347178 -1.449651 -7.703674 50.183525 -1.969533 -19.896824 -17.353470 -8.773269 1.665948 40.558098 0.000008 0.000056 -21.692303 -0.000047 -0.000031 -14.852407 -0.000104 -0.000001 0.000138 -13.423087 0.234959 -13.694535 -8.586842 -0.032464 0.109192 -8.636491 0.004589 0.089660 -0.000001 0.001818 -0.000016 -14.151235 0.109355 -14.929020 -9.265874 -0.025375 0.037571 -9.159783 0.003137 0.031145 -0.001689 -0.000070 -0.000199 -16.009909 -0.064514 -13.991602 -10.743395 0.061983 -0.072636 -10.755703 -0.001064 -0.066804 0.000561 0.000010 0.000007 -16.885475 -0.331498 -13.621971 -11.565097 0.094633 -0.224241 -11.420796 -0.016819 -0.186469 -0.000959 0.000007 -0.000058 0.000000 0.000000 0.000000 0.000000 0.000000 0.000000 -2.783488 -3.563597 19.510826 -0.198728 -0.975798 9.553939 -1.018865 -10.786599 14.993994 -0.605178 -0.721495 -27.830709 0.000000 0.000000 0.000000 0.000000 0.000000 0.000000 0.000000 0.000000 0.000000 9.423394 6.632016 18.131796 0.225684 1.064603 13.751732 -1.456696 5.765119 11.817614 0.421808 0.409615 -27.315264 0.000000 0.000000 0.000000 0.000000 0.000000 0.000000 0.000000 0.000000 0.000000 
-0.385292 85.516144 5.800725 -1.232083 -4.722267 -15.310411 -0.131530 0.191321 9.398569 5.313659 -1.356879 -4.110662 -3.248178 0.658349 20.138876 0.330853 -0.566408 -1.593837 7.194398 1.071834 11.530338 -3.186621 0.492018 -7.019198 -0.153109 3.394066 -25.808620 0.000000 0.000000 0.000000 98.131653 -1.022071 4.857004 56.605812 -44.490959 8.412234 1.403451 16.300121 32.836636 5.222075 16.281519 -12.009309 9.569610 -1.758789 40.222744 -0.000002 0.000049 -23.461452 0.000003 0.000070 -16.244209 0.000014 0.000000 -0.000051 11.164122 0.205615 -8.932562 7.722270 -0.073802 0.119476 7.706230 -0.043321 0.049722 -0.000005 0.000027 -0.000037 11.891680 0.070792 -11.050143 8.214565 -0.040690 0.036415 8.122796 -0.010498 0.034793 -0.000004 -0.000031 -0.000009 13.944851 -0.127393 -12.273460 9.838039 0.072357 -0.016845 9.691033 0.012503 -0.018398 -0.000016 -0.000448 0.000014 15.209308 -0.413136 -14.914829 10.683416 0.150816 0.034113 10.679432 0.014031 0.002182 -0.000087 -0.000011 -0.000008 0.000000 0.000000 0.000000 0.000000 0.000000 0.000000 -95.003700 0.771197 4.337924 -56.862770 44.722019 1.387751 -1.438532 -7.698594 50.188934 -1.975765 -19.866848 -17.348633 -8.773032 1.666249 40.557358 0.000008 0.000056 -21.696583 -0.000047 -0.000031 -14.855650 -0.000085 -0.000001 0.000141 -13.442841 0.234694 -13.706040 -8.586209 -0.032281 0.111274 -8.635108 0.004731 0.091686 -0.000001 0.001808 -0.000015 -14.165515 0.109157 -14.938418 -9.266004 -0.025223 0.038342 -9.159301 0.003250 0.031729 -0.001688 -0.000070 -0.000199 -16.014601 -0.064467 -14.004493 -10.752891 0.061758 -0.073499 -10.764824 -0.001192 -0.067669 0.000550 0.000010 0.000007 -16.880552 -0.331327 -13.624684 -11.577107 0.094143 -0.226740 -11.430665 -0.017003 -0.189140 -0.000970 0.000007 -0.000058 0.000000 0.000000 0.000000 0.000000 0.000000 0.000000 -2.789796 -3.560567 19.535566 -0.198270 -0.973958 9.561945 -1.018365 -10.787261 14.983940 -0.606155 -0.721940 -27.830481 0.000000 0.000000 0.000000 0.000000 0.000000 0.000000 0.000000 0.000000 0.000000 9.418438 6.628055 18.161558 0.225235 1.063398 13.742208 -1.455161 5.769146 11.825802 0.421367 0.410605 -27.304052 0.000000 0.000000 0.000000 0.000000 0.000000 0.000000 0.000000 0.000000 0.000000 
-0.392109 85.513107 5.799862 -1.225546 -4.740199 -15.332427 -0.131163 0.191576 9.403673 5.306816 -1.352667 -4.125638 -3.243245 0.650372 20.164282 0.312593 -0.566674 -1.601264 7.146308 1.086207 11.554587 -3.192286 0.493281 -7.003255 -0.156771 3.392632 -25.823132 0.000000 0.000000 0.000000 98.135345 -1.020465 4.838014 56.600006 -44.496075 8.435315 1.409245 16.324421 32.884079 5.203877 16.154776 -12.005291 9.571436 -1.759114 40.221905 -0.000002 0.000049 -23.467001 0.000003 0.000070 -16.244169 0.000014 0.000000 -0.000051 11.172447 0.205234 -8.938320 7.719388 -0.073846 0.117571 7.704776 -0.043423 0.047959 -0.000005 0.000027 -0.000037 11.900212 0.070585 -11.058306 8.211457 -0.040713 0.035609 8.119794 -0.010506 0.034169 -0.000004 -0.000034 -0.000009 13.943588 -0.127268 -12.289516 9.841157 0.072260 -0.016204 9.693756 0.012526 -0.017771 -0.000016 -0.000478 0.000014 15.188089 -0.413402 -14.928207 10.684594 0.150971 0.033955 10.681435 0.014391 0.002308 -0.000083 -0.000011 -0.000008 0.000000 0.000000 0.000000 0.000000 0.000000 0.000000 -95.025856 0.777118 4.315344 -56.836365 44.732327 1.444903 -1.428938 -7.693099 50.189472 -1.982984 -19.833609 -17.345398 -8.773545 1.666609 40.556293 0.000008 0.000056 -21.702250 -0.000048 -0.000031 -14.859764 -0.000068 -0.000001 0.000140 -13.464830 0.234414 -13.718321 -8.586384 -0.032067 0.113264 -8.634286 0.004883 0.093646 -0.000001 0.001796 -0.000015 -14.181159 0.108954 -14.949007 -9.266689 -0.025059 0.039066 -9.159050 0.003361 0.032296 -0.001686 -0.000070 -0.000199 -16.018885 -0.064378 -14.018537 -10.761744 0.061525 -0.074388 -10.773568 -0.001315 -0.068521 0.000539 0.000010 0.000007 -16.873384 -0.330932 -13.628528 -11.588623 0.093636 -0.229089 -11.440315 -0.017184 -0.191633 -0.000982 0.000007 -0.000058 0.000000 0.000000 0.000000 0.000000 0.000000 0.000000 -2.795692 -3.554800 19.559273 -0.197789 -0.971916 9.571469 -1.017902 -10.787137 14.975788 -0.607168 -0.722564 -27.832003 0.000000 0.000000 0.000000 0.000000 0.000000 0.000000 0.000000 0.000000 0.000000 9.412859 6.624188 18.191046 0.224878 1.062525 13.735208 -1.455076 5.775210 11.830271 0.421126 0.411106 -27.292221 0.000000 0.000000 0.000000 0.000000 0.000000 0.000000 0.000000 0.000000 0.000000 
